<svg width="69" height="68" viewBox="0 0 69 68" fill="none" xmlns="http://www.w3.org/2000/svg">
<g clip-path="url(#clip0_116_148)">
<mask id="mask0_116_148" style="mask-type:luminance" maskUnits="userSpaceOnUse" x="0" y="0" width="55" height="68">
<path d="M8.11923 32.5517L26.7302 20.1626L44.8066 8.12931C45.3555 7.76405 46.0144 7.73223 46.596 8.04281C47.1777 8.35384 47.5166 8.91853 47.5166 9.57734V15.7921L54.8598 10.9039V9.57734C54.8598 6.21474 53.0299 3.16451 50.061 1.578C47.1082 -5.05725e-07 43.5202 0.17344 40.7335 2.02841L4.04615 26.4508C1.50356 28.1436 0 30.9486 0 33.9998C0 37.0509 1.50356 39.8564 4.04615 41.5487L40.7339 65.9711C43.5207 67.8261 47.1082 67.9995 50.0614 66.4216C53.0308 64.835 54.8602 61.7848 54.8602 58.4222V57.0956L47.517 52.2075V58.4222C47.517 59.081 47.1782 59.6462 46.5965 59.9567C46.0148 60.2678 45.3559 60.2359 44.807 59.8702L26.7306 47.8369L8.11968 35.4478C7.62014 35.1153 7.34366 34.5994 7.34366 33.9993C7.34366 33.3992 7.62014 32.8838 8.11968 32.5508" fill="white"/>
</mask>
<g mask="url(#mask0_116_148)">
<path d="M54.8602 0H0V68H54.8602V0Z" fill="url(#paint0_linear_116_148)"/>
</g>
<mask id="mask1_116_148" style="mask-type:luminance" maskUnits="userSpaceOnUse" x="30" y="3" width="39" height="62">
<path d="M68.9999 3.3653L34.3206 26.4508C31.778 28.1431 30.2744 30.9487 30.2744 33.9998C30.2744 37.0509 31.778 39.8564 34.3206 41.5487L68.9999 64.6343V55.822L57.005 47.837L38.3941 35.4478C37.8946 35.1153 37.6181 34.5994 37.6181 33.9993C37.6181 33.3992 37.8946 32.8838 38.3941 32.5509L57.005 20.1617L68.9999 12.1767V3.3653Z" fill="white"/>
</mask>
<g mask="url(#mask1_116_148)">
<path d="M69.0004 3.3653H30.2749V64.6347H69.0004V3.3653Z" fill="url(#paint1_linear_116_148)"/>
</g>
</g>
<defs>
<linearGradient id="paint0_linear_116_148" x1="5.99136" y1="56.8778" x2="64.242" y2="-5.46538" gradientUnits="userSpaceOnUse">
<stop stop-color="#0463EF"/>
<stop offset="0.44" stop-color="#FE42CF"/>
<stop offset="1" stop-color="#FFFF00"/>
</linearGradient>
<linearGradient id="paint1_linear_116_148" x1="33.2623" y1="58.1959" x2="79.8834" y2="-10.8924" gradientUnits="userSpaceOnUse">
<stop stop-color="#1757FB"/>
<stop offset="0.42" stop-color="#2193FC"/>
<stop offset="0.81" stop-color="#29C6FE"/>
<stop offset="1" stop-color="#2DDAFF"/>
</linearGradient>
<clipPath id="clip0_116_148">
<rect width="69" height="68" fill="white"/>
</clipPath>
</defs>
</svg>
